<svg width="161" height="125" viewBox="0 0 161 125" fill="none" xmlns="http://www.w3.org/2000/svg">
<path d="M40.75 23.5L81 0L81.0001 24L61 37L52 32L42 27L40.75 26.1212V24.75V23.5Z" fill="#75E4BF"/>
<path d="M61 36L81 24V36.5V51.5L61 49.5V36Z" fill="#75E4BF"/>
<path d="M81 24L100 31V34V49L81 51.5V24Z" fill="#62C0A1"/>
<path d="M81 0L119.13 25L120 26.5L119.5 27.5L118.5 28.5L100 38V31L81 24.0001V0Z" fill="#75E4BF"/>
<line x1="41.5" y1="23.5" x2="41.5" y2="34.5" stroke="#75E4BF"/>
<path d="M40 33.75C40 33.6119 40.1119 33.5 40.25 33.5H42.6786C42.8166 33.5 42.9286 33.6119 42.9286 33.75C42.9286 33.8881 43.0405 34 43.1786 34H43.3804C43.63 34 43.8323 34.2023 43.8323 34.4519V46.1307C43.8323 46.3347 43.667 46.5 43.463 46.5C43.2591 46.5 43.0938 46.6653 43.0938 46.8693V46.9531C43.0938 47.1171 42.9608 47.25 42.7969 47.25C42.6329 47.25 42.5 47.3829 42.5 47.5469V47.625C42.5 47.8321 42.3321 48 42.125 48H40.6696C40.4625 48 40.2946 47.8321 40.2946 47.625C40.2946 47.4179 40.1267 47.25 39.9196 47.25H39.875C39.6679 47.25 39.5 47.0821 39.5 46.875V46.75C39.5 46.6119 39.3881 46.5 39.25 46.5C39.1119 46.5 39 46.3881 39 46.25V34.5C39 34.2239 39.2239 34 39.5 34H39.75C39.8881 34 40 33.8881 40 33.75Z" fill="#55BC9A"/>
<path d="M76.5 85C76.5 85.3099 77.5889 85.9938 78 87.5C78.3461 88.7681 78.1545 90.9101 77 91C69.4565 91.5875 50.0343 84.4642 35 83.5C20.9736 82.6004 8.59046 82 7 82C3.13401 82 0 78.366 0 74.5C0 70.634 3.13401 67.5 7 67.5C8.52496 67.5 15.6576 67.3434 24.5 68.5C33.9683 69.7385 45.3969 72.3769 54 75C57.7308 76.1376 76.5 84.2919 76.5 85Z" fill="#387ADF"/>
<path d="M84.6518 85.3481C84.6518 85.664 83.5651 86.3613 83.1548 87.8968C82.8093 89.1895 83.0006 91.3733 84.1528 91.465C91.6813 92.0639 111.065 84.8018 126.069 83.8189C140.068 82.9018 152.427 82.2897 154.014 82.2897C157.872 82.2897 161 78.5849 161 74.6436C161 70.7023 157.872 67.5073 154.014 67.5073C152.492 67.5073 145.373 67.3476 136.549 68.5267C127.099 69.7894 115.693 72.4791 107.107 75.1533C103.384 76.313 84.6518 84.6262 84.6518 85.3481Z" fill="#62C0A1"/>
<path d="M78 76.5C78 76.9959 79.1873 80.8859 77 80.5C71.5232 79.5338 59.0632 72.3459 49.5 69C43.187 66.7913 37.0645 63.9537 34.3473 62.9093C33.67 62.6489 33.2043 62.5 33 62.5C30.2386 62.5 28 60.2614 28 57.5C28 54.7386 30.2386 52.5 33 52.5C34.0913 52.5 41.9322 54.8171 50.5 59C63.6118 65.4012 78 74.8299 78 76.5Z" fill="#387ADF"/>
<path d="M83.326 76.477C83.326 76.9724 82.1228 80.8587 84.3395 80.4732C89.8902 79.5078 102.518 72.3269 112.21 68.9842C118.608 66.7775 124.813 63.9427 127.567 62.8993C128.254 62.6392 128.726 62.4904 128.933 62.4904C131.731 62.4904 134 60.254 134 57.4952C134 54.7364 131.731 52.5 128.933 52.5C127.827 52.5 119.88 54.8149 111.197 58.9938C97.9082 65.3889 83.326 74.8085 83.326 76.477Z" fill="#62C0A1"/>
<path d="M21.296 120.668C20.176 120.668 19.168 120.476 18.272 120.092C17.376 119.692 16.672 119.132 16.16 118.412C15.648 117.692 15.392 116.852 15.392 115.892H18.32C18.384 116.612 18.664 117.204 19.16 117.668C19.672 118.132 20.384 118.364 21.296 118.364C22.24 118.364 22.976 118.14 23.504 117.692C24.032 117.228 24.296 116.636 24.296 115.916C24.296 115.356 24.128 114.9 23.792 114.548C23.472 114.196 23.064 113.924 22.568 113.732C22.088 113.54 21.416 113.332 20.552 113.108C19.464 112.82 18.576 112.532 17.888 112.244C17.216 111.94 16.64 111.476 16.16 110.852C15.68 110.228 15.44 109.396 15.44 108.356C15.44 107.396 15.68 106.556 16.16 105.836C16.64 105.116 17.312 104.564 18.176 104.18C19.04 103.796 20.04 103.604 21.176 103.604C22.792 103.604 24.112 104.012 25.136 104.828C26.176 105.628 26.752 106.732 26.864 108.14H23.84C23.792 107.532 23.504 107.012 22.976 106.58C22.448 106.148 21.752 105.932 20.888 105.932C20.104 105.932 19.464 106.132 18.968 106.532C18.472 106.932 18.224 107.508 18.224 108.26C18.224 108.772 18.376 109.196 18.68 109.532C19 109.852 19.4 110.108 19.88 110.3C20.36 110.492 21.016 110.7 21.848 110.924C22.952 111.228 23.848 111.532 24.536 111.836C25.24 112.14 25.832 112.612 26.312 113.252C26.808 113.876 27.056 114.716 27.056 115.772C27.056 116.62 26.824 117.42 26.36 118.172C25.912 118.924 25.248 119.532 24.368 119.996C23.504 120.444 22.48 120.668 21.296 120.668ZM33.0204 106.028V110.924H38.7804V113.156H33.0204V118.268H39.5004V120.5H30.2844V103.796H39.5004V106.028H33.0204ZM52.0623 120.5L45.6063 113.036V120.5H42.8703V103.82H45.6063V111.428L52.0863 103.82H55.5183L48.2703 112.172L55.6383 120.5H52.0623ZM65.6658 120.668C64.1138 120.668 62.6818 120.308 61.3698 119.588C60.0738 118.852 59.0418 117.836 58.2738 116.54C57.5218 115.228 57.1458 113.756 57.1458 112.124C57.1458 110.492 57.5218 109.028 58.2738 107.732C59.0418 106.436 60.0738 105.428 61.3698 104.708C62.6818 103.972 64.1138 103.604 65.6658 103.604C67.2338 103.604 68.6658 103.972 69.9618 104.708C71.2738 105.428 72.3058 106.436 73.0578 107.732C73.8098 109.028 74.1858 110.492 74.1858 112.124C74.1858 113.756 73.8098 115.228 73.0578 116.54C72.3058 117.836 71.2738 118.852 69.9618 119.588C68.6658 120.308 67.2338 120.668 65.6658 120.668ZM65.6658 118.292C66.7698 118.292 67.7538 118.044 68.6178 117.548C69.4818 117.036 70.1538 116.316 70.6338 115.388C71.1298 114.444 71.3778 113.356 71.3778 112.124C71.3778 110.892 71.1298 109.812 70.6338 108.884C70.1538 107.956 69.4818 107.244 68.6178 106.748C67.7538 106.252 66.7698 106.004 65.6658 106.004C64.5618 106.004 63.5778 106.252 62.7138 106.748C61.8498 107.244 61.1698 107.956 60.6738 108.884C60.1938 109.812 59.9538 110.892 59.9538 112.124C59.9538 113.356 60.1938 114.444 60.6738 115.388C61.1698 116.316 61.8498 117.036 62.7138 117.548C63.5778 118.044 64.5618 118.292 65.6658 118.292ZM79.6141 118.292H85.2541V120.5H76.8781V103.82H79.6141V118.292ZM97.5982 117.092H90.6142L89.4142 120.5H86.5582L92.5342 103.796H95.7022L101.678 120.5H98.7982L97.5982 117.092ZM96.8302 114.86L94.1182 107.108L91.3822 114.86H96.8302ZM117.597 103.82V120.5H114.861V113.204H107.013V120.5H104.277V103.82H107.013V110.972H114.861V103.82H117.597ZM130.39 120.5L123.934 113.036V120.5H121.198V103.82H123.934V111.428L130.414 103.82H133.846L126.598 112.172L133.966 120.5H130.39ZM139.098 103.82V114.452C139.098 115.716 139.426 116.668 140.082 117.308C140.754 117.948 141.682 118.268 142.866 118.268C144.066 118.268 144.994 117.948 145.65 117.308C146.322 116.668 146.658 115.716 146.658 114.452V103.82H149.394V114.404C149.394 115.764 149.098 116.916 148.506 117.86C147.914 118.804 147.122 119.508 146.13 119.972C145.138 120.436 144.042 120.668 142.842 120.668C141.642 120.668 140.546 120.436 139.554 119.972C138.578 119.508 137.802 118.804 137.226 117.86C136.65 116.916 136.362 115.764 136.362 114.404V103.82H139.098Z" fill="#62C0A1"/>
</svg>
